<?xml version="1.0" standalone="no"?>
<!DOCTYPE svg PUBLIC "-//W3C//DTD SVG 20010904//EN"
 "http://www.w3.org/TR/2001/REC-SVG-20010904/DTD/svg10.dtd">
<svg version="1.0" xmlns="http://www.w3.org/2000/svg"
 width="300.000000pt" height="210.000000pt" viewBox="0 0 300.000000 210.000000"
 preserveAspectRatio="xMidYMid meet">
<metadata>
Created by potrace 1.10, written by Peter Selinger 2001-2011
</metadata>
<g transform="translate(0.000000,210.000000) scale(0.100000,-0.100000)"
fill="#000000" stroke="none">
<path d="M1145 2038 c-4 -9 -5 -31 -3 -50 l3 -33 18 34 c15 31 16 37 3 50 -14
13 -16 13 -21 -1z"/>
<path d="M2697 2015 c-22 -27 -33 -34 -50 -30 -18 5 -30 -3 -56 -36 -37 -45
-38 -43 29 -78 20 -11 68 -44 108 -75 40 -31 78 -53 86 -50 8 3 21 -5 30 -18
9 -12 16 -18 16 -12 0 5 -5 15 -11 21 -16 16 -5 28 40 43 36 12 55 29 34 30
-5 0 -16 7 -26 15 -18 13 -18 15 4 44 l22 30 -32 39 c-31 39 -107 94 -146 106
-15 4 -27 -3 -48 -29z"/>
<path d="M300 2030 c-8 -5 -44 -19 -80 -31 -84 -28 -82 -27 -69 -51 8 -15 8
-22 -1 -28 -19 -11 -7 -83 20 -120 14 -19 30 -30 46 -30 13 0 24 -3 24 -7 0
-5 4 -14 9 -22 7 -11 23 -7 83 24 40 20 77 41 81 45 7 6 -74 205 -91 222 -4 4
-14 3 -22 -2z"/>
<path d="M720 1939 c-11 -45 -10 -51 5 -63 16 -11 17 -19 7 -57 -14 -54 -8
-62 65 -89 39 -14 74 -20 112 -18 53 3 56 4 59 31 3 27 5 28 43 22 38 -7 39
-6 31 17 -5 12 -12 35 -16 51 -6 25 -4 27 23 27 16 0 39 9 52 21 l24 21 -25
-16 c-30 -20 -69 -21 -84 -2 -6 7 -45 24 -86 36 -41 12 -101 33 -132 46 -32
13 -59 24 -62 24 -2 0 -9 -23 -16 -51z"/>
<path d="M1931 1954 c-14 -22 -27 -34 -36 -31 -9 4 -21 -8 -35 -35 -11 -22
-20 -42 -18 -43 2 -1 28 -10 58 -20 30 -10 77 -29 104 -42 26 -13 55 -22 63
-19 9 4 23 1 32 -6 14 -10 14 -10 3 2 -11 12 -7 19 20 42 32 27 32 28 11 34
-25 7 -28 20 -13 44 14 22 -33 66 -97 90 -30 11 -58 20 -62 20 -5 0 -19 -16
-30 -36z"/>
<path d="M1127 1931 c-4 -17 -3 -21 5 -13 5 5 8 16 6 23 -3 8 -7 3 -11 -10z"/>
<path d="M1500 1900 c0 -5 -13 -23 -30 -40 -16 -17 -30 -36 -30 -43 0 -7 37
-24 82 -39 l81 -26 34 26 c31 25 32 28 13 36 -14 6 -18 15 -14 31 5 19 -2 26
-38 44 -46 22 -98 28 -98 11z"/>
<path d="M2212 1831 c-10 -6 -10 -10 3 -21 8 -7 15 -19 15 -27 0 -8 5 -11 10
-8 6 3 10 19 10 36 0 29 -13 36 -38 20z"/>
<path d="M2241 1719 c-1 -8 6 -24 15 -35 15 -19 15 -19 6 1 -5 11 -12 27 -15
35 -5 13 -6 13 -6 -1z"/>
<path d="M2400 1692 c-41 -14 -80 -33 -87 -41 -17 -23 -113 -220 -113 -233 0
-7 22 -9 60 -6 53 4 63 2 82 -19 12 -13 29 -23 39 -23 27 0 77 47 109 103 l29
50 -42 38 -42 37 28 56 c15 31 27 59 27 61 0 7 -5 6 -90 -23z"/>
<path d="M2861 1684 c0 -11 3 -14 6 -6 3 7 2 16 -1 19 -3 4 -6 -2 -5 -13z"/>
<path d="M2092 1640 c-26 -45 -27 -50 -9 -50 10 0 41 79 34 87 -1 1 -12 -16
-25 -37z"/>
<path d="M1627 1656 c-4 -10 -5 -21 -2 -24 9 -9 17 6 13 25 -3 17 -4 17 -11
-1z"/>
<path d="M2271 1644 c0 -11 3 -14 6 -6 3 7 2 16 -1 19 -3 4 -6 -2 -5 -13z"/>
<path d="M2842 1632 c-11 -25 -11 -25 4 -10 9 9 15 21 13 27 -2 6 -10 -2 -17
-17z"/>
<path d="M527 1613 c-4 -3 -7 -14 -7 -24 0 -12 -11 -20 -32 -24 -75 -15 -71
-10 -66 -94 3 -42 13 -96 23 -120 18 -42 19 -43 57 -38 34 5 38 3 38 -16 0
-40 14 -50 36 -26 37 41 52 43 80 9 14 -16 33 -30 42 -29 12 0 11 3 -5 9 -32
13 -58 57 -44 74 8 10 7 39 -4 112 -8 54 -15 116 -15 137 l0 37 -48 0 c-27 0
-52 -3 -55 -7z"/>
<path d="M2786 1571 c-23 -24 -25 -29 -11 -35 27 -10 35 -7 35 13 0 11 5 23
10 26 12 7 13 25 2 25 -5 0 -21 -13 -36 -29z"/>
<path d="M1235 1566 c-2 -11 -14 -62 -26 -113 -11 -51 -18 -97 -14 -103 3 -5
1 -20 -5 -32 -11 -22 -10 -22 4 -4 16 19 17 19 44 -7 29 -28 42 -27 42 4 0 15
6 17 33 12 32 -5 34 -3 55 45 12 28 22 71 22 96 0 42 -2 45 -35 56 -22 7 -35
18 -35 29 0 11 -13 20 -40 28 -37 9 -41 9 -45 -11z"/>
<path d="M280 1564 c0 -17 18 -36 30 -32 7 2 4 10 -9 22 -12 11 -21 15 -21 10z"/>
<path d="M1946 1512 c-3 -5 -2 -22 3 -38 l7 -28 16 31 c9 18 13 34 10 37 -8 9
-30 7 -36 -2z"/>
<path d="M1944 1398 c-6 -18 -14 -42 -18 -53 -4 -11 2 -3 14 18 12 21 20 45
18 53 -2 9 -8 0 -14 -18z"/>
<path d="M1703 1401 c1 -4 16 -32 32 -65 l30 -58 -42 -37 -41 -36 23 -47 c24
-44 88 -108 111 -108 6 0 21 12 35 26 21 23 30 26 75 21 79 -8 81 -1 35 91
-23 45 -41 92 -41 104 0 16 -3 19 -9 10 -6 -10 -11 -5 -20 16 -10 25 -25 33
-102 59 -49 16 -88 27 -86 24z"/>
<path d="M2720 1390 c0 -11 2 -20 5 -20 2 0 9 9 15 20 9 16 8 20 -5 20 -8 0
-15 -9 -15 -20z"/>
<path d="M2579 1293 l20 -40 -27 -27 -27 -27 21 -37 c12 -20 33 -44 47 -52 23
-13 28 -13 45 3 11 10 35 17 61 17 l43 0 -44 82 c-45 84 -44 83 -136 112 l-23
8 20 -39z"/>
<path d="M1022 1309 c2 -8 20 -15 39 -17 40 -4 30 13 -15 24 -22 5 -28 4 -24
-7z"/>
<path d="M2700 1290 c0 -7 3 -10 7 -7 3 4 3 10 0 14 -4 3 -7 0 -7 -7z"/>
<path d="M297 1283 c-3 -5 -1 -17 4 -28 4 -11 8 -15 8 -8 1 6 4 18 7 27 6 16
-11 23 -19 9z"/>
<path d="M1118 1283 c6 -2 18 -2 25 0 6 3 1 5 -13 5 -14 0 -19 -2 -12 -5z"/>
<path d="M801 1268 c-18 -5 -31 -12 -28 -15 11 -10 72 -10 79 1 17 25 5 28
-51 14z"/>
<path d="M728 1243 c6 -2 18 -2 25 0 6 3 1 5 -13 5 -14 0 -19 -2 -12 -5z"/>
<path d="M140 1206 c0 -3 8 -22 17 -42 l18 -36 -28 -24 c-24 -21 -26 -27 -16
-46 31 -62 89 -97 103 -63 4 10 20 15 51 15 25 0 45 2 45 4 0 9 -56 122 -70
142 -9 12 -31 26 -50 32 -19 5 -43 13 -52 17 -10 4 -18 5 -18 1z"/>
<path d="M1006 1156 c9 -72 14 -81 58 -111 l39 -26 -6 36 c-5 32 -3 37 19 47
22 10 25 17 20 42 -9 45 -29 59 -86 61 l-51 2 7 -51z"/>
<path d="M956 1015 c-3 -8 -1 -15 4 -15 6 0 10 7 10 15 0 8 -2 15 -4 15 -2 0
-6 -7 -10 -15z"/>
<path d="M50 911 c0 -14 -2 -14 -11 -1 -9 12 -10 11 -6 -7 3 -12 0 -24 -5 -25
-7 -3 -7 -11 1 -25 6 -12 11 -63 11 -114 0 -76 -3 -94 -17 -105 -16 -11 -18
-41 -21 -323 l-3 -311 1500 0 1501 0 0 360 c0 306 -2 360 -14 360 -8 0 -17
-10 -19 -22 -2 -13 -5 9 -6 49 0 39 4 84 10 100 6 17 7 29 1 31 -6 2 -8 13 -5
25 4 18 3 19 -6 7 -9 -13 -11 -13 -11 1 0 18 -31 22 -42 5 -4 -6 -8 -21 -8
-33 0 -16 -4 -21 -16 -16 -15 5 -14 3 0 -26 14 -26 16 -48 10 -116 -4 -47 -10
-85 -14 -85 -5 0 -2 -28 6 -61 8 -34 13 -64 11 -66 -20 -19 -66 62 -82 145 -4
18 -14 36 -22 39 -8 3 -13 14 -10 24 3 10 -5 27 -19 40 -22 21 -22 23 -8 51 9
17 13 32 10 35 -2 3 -24 -1 -48 -9 -38 -13 -47 -22 -80 -84 -21 -38 -38 -73
-38 -77 0 -5 16 -7 35 -6 19 2 40 -2 47 -9 6 -6 19 -12 27 -12 33 0 96 -99 87
-136 -4 -13 -3 -32 2 -42 6 -12 3 -26 -12 -48 l-21 -30 2 53 c1 29 4 57 8 63
9 14 -8 12 -24 -2 -11 -11 -13 -7 -8 20 4 18 2 32 -3 32 -6 0 -10 -9 -10 -20
0 -11 -4 -20 -10 -20 -5 0 -10 11 -10 25 0 28 -20 35 -21 8 0 -16 -1 -16 -8 1
-11 28 -19 8 -16 -39 3 -40 2 -41 -29 -37 -22 3 -37 -2 -50 -17 -11 -12 -29
-21 -42 -21 -12 0 -30 -7 -39 -16 -15 -15 -17 -15 -34 0 -21 19 -26 76 -7 76
7 0 13 6 13 13 0 6 4 20 8 30 4 9 3 17 -1 18 -55 6 -62 4 -80 -23 -10 -15 -22
-28 -25 -28 -4 0 -21 16 -38 35 -41 47 -41 86 -1 132 34 38 38 61 14 70 -11 4
-25 -4 -43 -25 -29 -35 -46 -40 -55 -16 -10 26 -7 53 10 86 15 28 15 30 0 25
-12 -5 -16 0 -16 16 0 26 -19 62 -20 37 0 -13 -1 -13 -10 0 -8 13 -10 13 -10
-2 0 -10 -5 -15 -13 -12 -10 4 -13 -3 -10 -28 10 -81 9 -213 -2 -223 -7 -5
-17 -29 -24 -52 -14 -51 -38 -57 -62 -14 -16 27 -24 29 -82 22 -4 -1 -3 -10 3
-21 6 -11 8 -25 5 -30 -3 -6 1 -10 10 -10 10 0 15 -7 13 -19 -2 -11 8 -31 21
-45 14 -14 20 -26 14 -26 -16 0 -33 -47 -33 -90 0 -30 -5 -42 -22 -51 -19 -10
-20 -9 -12 7 15 32 10 108 -9 137 -13 20 -26 27 -51 27 -60 0 -90 -56 -74
-139 12 -58 8 -66 -38 -74 -29 -5 -32 -3 -37 21 -4 17 2 42 14 65 22 43 24 68
8 111 -9 26 -7 39 10 76 11 25 16 46 11 48 -6 2 -5 12 2 25 10 20 10 21 -5 8
-15 -12 -17 -11 -17 3 0 10 -4 14 -10 11 -5 -3 -10 0 -11 7 -1 20 -20 -32 -27
-77 l-7 -39 -40 40 c-52 52 -90 55 -90 7 0 -23 5 -33 19 -37 16 -4 17 -8 7
-19 -9 -12 -6 -19 17 -38 65 -53 64 -103 -3 -149 -52 -36 -59 -37 -44 -9 16
30 6 115 -16 139 -11 12 -31 20 -52 20 -26 0 -37 -6 -51 -29 l-18 -30 -18 34
c-16 29 -17 38 -6 72 7 21 19 50 26 65 17 34 28 138 15 138 -5 0 -12 -8 -14
-17 -3 -13 -5 -12 -6 5 -1 32 -21 17 -22 -16 l-1 -27 -13 30 -14 30 -1 -34 c0
-28 -2 -31 -14 -22 -12 10 -14 0 -10 -76 5 -80 4 -87 -10 -73 -13 13 -14 25
-7 65 5 28 6 52 1 55 -12 8 -11 172 2 188 9 10 9 15 0 20 -6 4 -16 21 -22 37
-8 21 -13 26 -19 16 -7 -11 -10 -11 -14 0 -4 10 -6 8 -6 -4 -1 -11 -5 -15 -13
-11 -8 5 -9 2 -5 -9 3 -10 2 -17 -3 -17 -6 0 -6 -10 0 -26 13 -33 13 -87 0
-79 -6 4 -10 -7 -10 -25 0 -25 -4 -31 -15 -26 -18 7 -19 -4 -3 -39 10 -22 9
-31 -6 -56 -10 -17 -15 -36 -13 -43 5 -13 -39 -65 -46 -55 -13 17 -47 113 -47
134 0 15 -7 28 -17 32 -10 4 -22 12 -26 20 -4 7 -18 13 -29 13 -21 0 -21 0 -2
-16 19 -15 18 -15 -3 -11 -19 4 -23 1 -23 -18 0 -13 3 -25 7 -27 27 -12 87
-125 77 -146 -4 -10 -6 -21 -5 -25 1 -4 -5 -18 -14 -30 -8 -12 -15 -29 -15
-39 0 -9 -5 -20 -11 -24 -9 -5 -10 17 -7 79 4 71 2 84 -9 76 -10 -9 -13 -4
-13 22 l-1 34 -14 -30 c-12 -26 -13 -27 -14 -8 -1 26 -21 42 -21 17 0 -16 -1
-16 -15 2 -15 18 -15 17 -13 -16 2 -28 -1 -35 -17 -38 -11 -2 -32 -16 -47 -30
-16 -14 -28 -20 -28 -14 0 7 -9 21 -21 33 -17 17 -19 25 -10 47 5 15 18 50 28
77 10 28 18 66 17 85 -3 47 -4 48 -14 25 -7 -17 -9 -17 -9 -2 -1 27 -21 20
-21 -8 0 -14 -4 -25 -10 -25 -5 0 -10 9 -10 20 0 11 -5 20 -11 20 -7 0 -9 -10
-7 -25 4 -20 2 -24 -11 -20 -16 5 -16 -2 -10 -66 6 -54 5 -80 -6 -107 -13 -29
-17 -32 -30 -22 -11 9 -15 34 -15 99 0 73 4 95 25 138 14 28 32 54 40 57 20 7
19 26 -1 26 -12 0 -14 7 -9 30 8 35 -7 40 -23 8 l-11 -23 -1 25 -2 25 -8 -25
c-5 -17 -8 -19 -9 -7 -1 9 -5 17 -11 17 -5 0 -10 -8 -10 -17 0 -16 -2 -16 -11
-3 -8 11 -9 5 -6 -27 5 -46 0 -58 -19 -42 -9 7 -19 1 -39 -26 -15 -19 -36 -35
-45 -35 -25 0 -50 -27 -50 -54 0 -20 -49 -79 -64 -77 -22 4 -27 -1 -21 -16 4
-10 8 -24 8 -30 0 -7 7 -13 15 -13 10 0 13 -7 9 -21 -4 -14 2 -27 20 -42 37
-33 53 -69 41 -92 -13 -25 -48 -59 -76 -74 -26 -14 -25 -14 -11 28 14 40 -5
117 -32 131 -31 17 -65 11 -90 -16 -24 -26 -26 -38 -16 -148 2 -29 0 -30 -54
-41 l-56 -12 -44 38 -44 37 21 44 c13 26 20 55 17 73 -3 22 5 43 29 80 18 28
38 56 45 63 16 16 16 15 1 47 -14 31 -15 31 -61 0 -30 -21 -37 -32 -37 -58 0
-49 -13 -62 -64 -62 -40 0 -45 2 -41 20 3 11 11 48 19 83 8 34 11 62 6 62 -4
0 -10 39 -14 86 -6 69 -4 90 8 110 20 29 20 38 1 30 -11 -4 -15 1 -15 17 0 12
-4 27 -8 33 -11 17 -42 13 -42 -5z m684 -286 c-16 -67 -20 -74 -31 -59 -21 29
-15 73 15 109 15 17 29 31 31 29 1 -1 -5 -37 -15 -79z m-447 -32 c-4 -3 -10
-3 -14 0 -3 4 0 7 7 7 7 0 10 -3 7 -7z m378 -84 c44 -75 45 -96 3 -41 -18 23
-38 42 -44 42 -18 0 -26 30 -13 46 6 8 13 14 15 14 2 0 19 -27 39 -61z m1625
-9 c11 -21 20 -41 20 -42 0 -2 -15 -3 -34 -4 -25 0 -32 3 -30 15 9 51 15 71
19 71 3 0 14 -18 25 -40z m429 -167 c1 -13 -5 -23 -12 -23 -23 0 -25 9 -14 47
9 29 12 32 18 17 4 -11 8 -29 8 -41z m-1773 -10 c-12 -13 -25 13 -19 37 l7 24
9 -27 c5 -16 6 -31 3 -34z m563 -52 l1 -24 -25 23 c-23 22 -23 23 -7 45 l17
23 7 -21 c3 -12 6 -33 7 -46z m-429 49 c0 -5 -2 -10 -4 -10 -3 0 -8 5 -11 10
-3 6 -1 10 4 10 6 0 11 -4 11 -10z"/>
<path d="M2610 916 c0 -8 5 -18 10 -21 6 -3 10 3 10 14 0 12 -4 21 -10 21 -5
0 -10 -6 -10 -14z"/>
</g>
</svg>
